<mxfile host="app.diagrams.net" modified="2024-04-04T00:04:57.203Z" agent="Mozilla/5.0 (Windows NT 10.0; Win64; x64) AppleWebKit/537.36 (KHTML, like Gecko) Chrome/121.0.0.0 Safari/537.36 OPR/107.0.0.0" version="24.0.8" etag="6NNN6jRXZPZr-MowlLfk" type="github">
  <diagram name="Page-1" id="8IL4rYGb6e1lgIKx4FPf">
    <mxGraphModel>
      <root>
        <mxCell id="0" />
        <mxCell id="1" parent="0" />
      </root>
    </mxGraphModel>
  </diagram>
</mxfile>
